<svg version="1.1" xmlns="http://www.w3.org/2000/svg" xmlns:xlink="http://www.w3.org/1999/xlink" x="0px" y="0px" viewBox="-428 481.7 141.3 38.3" style="enable-background:new -428 481.7 141.3 38.3;" xml:space="preserve">
                            <g>
                                <g>
                                    <path class="st0 words" d="M-374.8,491.1c1.9,0,3.9,1,4.4,3.4h-2.4c-0.4-0.8-1-1.2-2-1.2c-1.5,0-2.4,1.2-2.4,2.7c0,1.6,0.9,2.6,2.4,2.6
				c1,0,1.6-0.3,2.1-1.2h-2v-2.1h4.5c0.1,1,0.1,1.9-0.3,2.8c-0.7,2-2.5,2.8-4.3,2.8c-2.4,0-4.9-1.6-4.9-4.9
				C-379.7,492.8-377.3,491.1-374.8,491.1z"></path>
                                    <path class="st0 words" d="M-362.3,493.4c-1.4,0-2.1,0-3.6,0v1.4h3.3c0,0.7,0,1.5,0,2.2h-3.3c0,0.6,0,1.1,0,1.7c1.4,0,2.2,0,3.7,0
				c0,0.7,0,1.5,0,2.2c-2.2,0-3.9,0-6.1,0c0-3.2,0-6.4,0-9.6c2.2,0,3.7,0,6,0C-362.3,492-362.3,492.7-362.3,493.4z"></path>
                                    <path class="st0 words" d="M-354.1,493.4c-1.4,0-2.1,0-3.5,0v1.4h3.3c0,0.7,0,1.5,0,2.2h-3.3c0,0.6,0,1.1,0,1.7c1.4,0,2.2,0,3.7,0
				c0,0.7,0,1.5,0,2.2c-2.2,0-3.9,0-6.1,0c0-3.2,0-6.4,0-9.6c2.2,0,3.7,0,6,0C-354.1,492-354.1,492.7-354.1,493.4z"></path>
                                    <path class="st0 words" d="M-351.9,500.8v-9.5c0.8,0,1.6,0,2.5,0v3.6h0.2c2.5,0,2.3-1.8,2.3-3.6c0.8,0,1.7,0,2.5,0c0,2,0.1,3.8-1.9,5
				l2.6,4.2v0.4h-2.7l-2.1-3.7c-0.3,0.1-0.6,0.1-0.9,0.1v3.7C-350.2,500.8-351,500.8-351.9,500.8z"></path>
                                </g>
                                <path class="st0 words" d="M-339.6,505.4c-1.4,0-2.1,0-3.5,0v1.4h3.3c0,0.7,0,1.5,0,2.2h-3.3c0,0.6,0,1.1,0,1.7c1.4,0,2.2,0,3.7,0
			c0,0.7,0,1.5,0,2.2c-2.2,0-3.9,0-6.1,0c0-3.2,0-6.4,0-9.6c2.2,0,3.7,0,6,0C-339.6,503.9-339.6,504.6-339.6,505.4z"></path>
                                <path class="st0 words" d="M-378.5,512.8c0-3.2,0-6.4,0-9.6c1.4,0,2.8,0,4.2,0c4.6,0,4.6,7.1,0,7.1h-1.8v2.5
			C-376.9,512.8-377.7,512.8-378.5,512.8z M-374.3,505.4c-0.6,0-1.2,0-1.8,0c0,0.8,0,2,0,2.7h1.8
			C-373,508.1-372.9,505.4-374.3,505.4z"></path>
                                <path class="st0 words" d="M-352.7,503.2l1.6,5.1l0,0l0.4-1.6l1.2-3.6h2.4v0.4l-3.3,9.3h-1.4l-1.5-4.6l0,0l-1.5,4.6h-1.4l-3.4-9.3v-0.4
			h2.5l1.2,3.6l0.4,1.6l0,0l1.6-5.1C-353.4,503.2-353.1,503.2-352.7,503.2z"></path>
                                <g>
                                    <path class="st0 words" d="M-369.6,507.8c0-6.6,9.8-6.6,9.8,0C-359.8,514.4-369.6,514.4-369.6,507.8z M-362.3,507.8
				c0-3.4-4.8-3.4-4.8,0C-367.1,511.3-362.3,511.3-362.3,507.8z"></path>
                                </g>
                                <path class="st0 words" d="M-329.3,512.4v0.4h-2.7l-1.6-2.8h-1.4v2.8c-0.8,0-1.7,0-2.5,0c0-3.2,0-6.4,0-9.6c1.4,0,2.8,0,4.2,0
			c3.8,0,4.5,4.6,2,6.2L-329.3,512.4z M-333.2,505.4c-0.6,0-1.2,0-1.8,0c0,0.8,0,1.6,0,2.4h1.8
			C-331.9,507.7-331.8,505.4-333.2,505.4z"></path>
                                <g>
                                    <g>
                                        <path class="st0" d="M-389.5,499.5L-389.5,499.5l-0.1-0.5l-6.4,1.4v0.3c0.1,3.9-1.9,7.9-5.2,10.3l-0.2,0.2
					c-3.1,2-6.9,2.6-10.4,1.6c-4.5-1.3-8.1-5.4-8.7-10c-0.6-3.9,0.8-8,3.7-10.8c0.4-0.4,0.8-0.7,1.3-1.1c3-2.2,7-2.9,10.5-1.9
					c0.2,0,0.3,0.1,0.5,0.1l0.4,0.1l3.4-5.6l-0.5-0.3c-0.1-0.1-0.2-0.1-0.3-0.2c-5.9-2.2-12.8-1.4-17.9,2.3c-1,0.7-1.9,1.5-2.7,2.3
					c-5.4,5.5-6.9,14.5-3.4,21.4c3.7,8.2,13.8,12.7,22.4,10c2-0.5,3.9-1.4,5.7-2.7C-392,512.5-388.9,505.9-389.5,499.5z"></path>
                                        <path class="st0" d="M-404.4,494.9c-2.3,1.7-4.2,3-5.9,4.3l-0.1,0.1c-1,1-1,2.4-0.2,3.6c0.8,1.2,2.3,1.6,3.5,1l0.1-0.1l13.1-9.3
					l1.7-1.2c0.1-0.1,0.2-0.1,0.3-0.2c0.8-0.6,1.3-1.6,1.2-2.6c-0.1-1-0.6-1.8-1.4-2.2c-1-0.6-2.3-0.6-3.2,0.1
					c-0.1,0.1-0.1,0.1-0.2,0.1c-1.8,1.3-3.6,2.6-5.4,3.9C-402.1,493.3-403.2,494.1-404.4,494.9z"></path>
                                    </g>
                                </g>
                            </g>
                    </svg>